<svg width="512" height="512" viewBox="0 0 512 512" fill="none" xmlns="http://www.w3.org/2000/svg">
  <rect width="512" height="512" rx="128" fill="#000000"/>
  <path d="M150 180C150 163.431 163.431 150 180 150H220C236.569 150 250 163.431 250 180V220C250 236.569 236.569 250 220 250H180C163.431 250 150 236.569 150 220V180Z" fill="#FFFFFF"/>
  <path d="M280 180C280 163.431 293.431 150 310 150H350C366.569 150 380 163.431 380 180V220C380 236.569 366.569 250 350 250H310C293.431 250 280 236.569 280 220V180Z" fill="#FFFFFF"/>
  <path d="M150 290C150 273.431 163.431 260 180 260H220C236.569 260 250 273.431 250 290V330C250 346.569 236.569 360 220 360H180C163.431 360 150 346.569 150 330V290Z" fill="#FFFFFF"/>
  <path d="M280 290C280 273.431 293.431 260 310 260H350C366.569 260 380 273.431 380 290V330C380 346.569 366.569 360 350 360H310C293.431 360 280 346.569 280 330V290Z" fill="#FFFFFF"/>
  <text x="256" y="420" font-family="Arial, sans-serif" font-size="48" font-weight="bold" fill="#FFFFFF" text-anchor="middle">SB</text>
</svg>
